<?xml version="1.0" standalone="no"?>
<!DOCTYPE svg PUBLIC "-//W3C//DTD SVG 20010904//EN"
 "http://www.w3.org/TR/2001/REC-SVG-20010904/DTD/svg10.dtd">
<svg version="1.0" xmlns="http://www.w3.org/2000/svg"
 width="1000.000000pt" height="1000.000000pt" viewBox="0 0 1000.000000 1000.000000"
 preserveAspectRatio="xMidYMid meet">
<metadata>
Created by potrace 1.14, written by Peter Selinger 2001-2017
</metadata>
<g transform="translate(0.000000,1000.000000) scale(0.100000,-0.100000)"
fill="#000000" stroke="none">
<path d="M4778 9985 c-2 -2 -52 -6 -113 -10 -121 -7 -143 -9 -231 -19 -111
-13 -172 -21 -224 -31 -14 -3 -41 -7 -60 -10 -19 -3 -102 -19 -185 -36 -517
-107 -996 -292 -1490 -576 -75 -44 -352 -223 -385 -250 -8 -7 -55 -42 -105
-79 -189 -142 -304 -242 -515 -454 -180 -180 -229 -233 -355 -390 -393 -490
-678 -1017 -870 -1610 -20 -63 -39 -122 -41 -130 -2 -8 -17 -67 -34 -130 -26
-98 -78 -337 -94 -435 -23 -138 -42 -296 -52 -423 -3 -37 -7 -92 -9 -122 -5
-65 -6 -483 -1 -555 13 -188 18 -248 31 -344 3 -21 8 -58 10 -81 2 -24 16
-107 31 -184 14 -78 28 -152 30 -166 14 -73 98 -387 134 -498 71 -215 174
-467 289 -702 31 -62 124 -235 135 -250 6 -8 20 -31 30 -50 76 -140 311 -472
457 -646 116 -139 126 -150 299 -324 186 -188 255 -250 423 -383 554 -440
1153 -744 1817 -922 151 -41 399 -94 510 -110 25 -4 59 -9 75 -12 41 -7 68
-10 150 -18 39 -4 78 -9 88 -11 126 -23 753 -23 957 0 19 3 60 7 90 11 72 7
261 35 280 40 8 2 38 7 65 11 28 3 53 8 56 10 3 2 21 6 40 9 104 17 390 95
569 155 477 159 912 380 1315 668 109 78 285 214 325 252 9 8 45 40 81 70 89
76 351 338 440 440 41 47 76 87 79 90 3 3 23 28 45 55 21 28 42 52 45 55 4 3
48 61 98 130 50 69 95 130 99 135 71 91 263 417 362 615 89 179 234 522 256
610 1 3 5 12 8 20 15 35 80 262 111 388 49 193 98 458 111 597 3 33 8 71 10
85 2 14 7 66 11 115 3 50 7 106 9 125 6 58 6 479 0 565 -5 83 -12 161 -21 255
-4 46 -23 179 -49 350 -10 61 -76 352 -102 445 -104 379 -280 803 -465 1123
-26 46 -48 86 -48 88 0 3 -51 82 -113 177 -144 219 -289 411 -457 602 -81 93
-394 397 -500 487 -433 365 -920 655 -1435 853 -93 36 -208 75 -360 125 -80
25 -408 106 -470 114 -11 2 -58 10 -105 19 -134 25 -251 41 -385 52 -38 3 -90
8 -115 11 -45 6 -577 13 -582 9z m517 -139 c66 -4 131 -8 145 -11 14 -2 54 -6
90 -9 36 -4 76 -8 90 -10 14 -2 46 -7 71 -10 57 -8 83 -13 189 -32 47 -9 96
-18 110 -20 198 -37 551 -143 800 -241 405 -160 900 -442 1186 -676 11 -9 46
-37 79 -64 177 -141 428 -381 575 -548 93 -106 104 -119 180 -215 131 -166
306 -418 370 -536 12 -21 29 -52 39 -69 105 -179 255 -493 327 -690 61 -165
128 -379 170 -545 50 -201 102 -499 120 -690 25 -276 25 -812 0 -960 -2 -14
-7 -56 -11 -94 -4 -38 -8 -79 -10 -90 -2 -12 -11 -66 -19 -121 -9 -56 -27
-155 -41 -220 -14 -66 -28 -131 -31 -145 -44 -208 -171 -578 -296 -860 -259
-585 -717 -1204 -1203 -1629 -27 -24 -62 -54 -77 -67 -26 -24 -167 -137 -221
-178 -16 -11 -41 -31 -55 -42 -47 -37 -293 -199 -402 -264 -338 -202 -842
-416 -1195 -506 -44 -11 -316 -74 -340 -79 -333 -62 -632 -90 -950 -89 -119 1
-351 11 -432 20 -181 18 -203 21 -368 50 -187 32 -179 30 -340 69 -231 55
-564 165 -730 240 -27 13 -75 33 -105 46 -92 38 -370 183 -481 249 -118 71
-389 250 -409 270 -3 3 -43 34 -90 70 -96 73 -100 77 -225 186 -142 124 -232
211 -395 384 -48 51 -224 261 -255 304 -11 16 -25 33 -30 40 -29 32 -201 282
-262 381 -139 226 -279 504 -373 740 -49 123 -127 341 -135 376 -2 8 -11 40
-20 70 -31 103 -97 380 -114 484 -12 71 -17 98 -25 145 -7 36 -12 80 -21 165
-3 28 -8 68 -10 90 -27 235 -27 817 0 976 2 13 6 51 10 84 5 53 35 249 50 330
48 252 120 509 216 772 42 115 60 160 99 248 5 11 19 43 31 70 110 254 310
598 493 850 49 68 186 244 216 277 8 9 40 46 70 81 55 65 350 362 425 428 338
296 711 545 1109 738 80 39 148 71 151 71 2 0 28 11 57 24 139 64 430 167 598
211 96 26 223 57 286 70 44 9 88 19 99 21 11 2 34 7 50 9 17 3 55 10 85 15 30
5 73 12 95 15 22 3 56 7 75 10 19 2 62 7 95 11 33 3 71 7 85 10 14 2 95 7 180
10 85 4 156 7 157 8 4 3 288 -2 398 -8z"/>
<path d="M4768 9785 c-2 -2 -50 -6 -108 -10 -58 -4 -118 -8 -135 -11 -16 -2
-58 -6 -91 -9 -34 -3 -72 -8 -85 -10 -13 -3 -44 -8 -69 -11 -25 -3 -52 -7 -60
-9 -8 -2 -31 -7 -50 -10 -656 -105 -1387 -411 -1955 -819 -71 -51 -291 -221
-311 -240 -6 -6 -42 -38 -80 -71 -73 -64 -298 -286 -376 -371 -241 -264 -475
-594 -656 -924 -68 -125 -172 -335 -172 -348 0 -4 -7 -20 -15 -36 -8 -16 -31
-70 -51 -120 -20 -50 -40 -102 -46 -116 -46 -112 -163 -507 -192 -651 -3 -13
-10 -49 -15 -79 -6 -30 -13 -66 -16 -80 -22 -106 -49 -313 -60 -455 -4 -49 -9
-108 -10 -130 -5 -51 -5 -517 0 -570 1 -22 6 -80 10 -130 4 -49 9 -99 11 -110
2 -11 7 -45 10 -75 5 -49 24 -180 39 -265 95 -538 311 -1105 616 -1614 215
-361 549 -766 870 -1057 115 -104 134 -120 265 -223 71 -56 135 -106 142 -112
28 -23 282 -189 381 -248 179 -108 507 -270 676 -333 188 -71 392 -140 405
-137 3 0 23 -6 45 -15 63 -24 321 -84 480 -111 113 -19 177 -28 285 -41 25 -3
59 -7 77 -9 202 -25 810 -25 941 -1 9 2 46 7 82 11 36 3 76 8 90 10 14 2 48 6
75 10 28 3 70 10 95 15 25 5 63 12 85 16 22 4 45 8 50 10 6 1 26 5 46 9 43 7
274 65 374 94 344 98 862 329 1135 505 252 163 348 231 505 358 257 209 511
460 695 688 25 30 47 57 50 60 3 3 18 23 35 45 16 22 32 42 35 45 13 10 180
252 245 356 204 326 379 699 494 1059 40 124 122 431 135 505 3 19 8 46 11 60
27 131 57 350 70 500 3 36 8 90 10 120 6 70 6 486 0 565 -2 33 -7 98 -10 145
-3 47 -8 96 -10 110 -2 14 -9 62 -15 107 -6 46 -13 97 -16 115 -59 396 -205
884 -366 1228 -394 842 -938 1486 -1694 2004 -62 42 -117 76 -122 76 -6 0 -12
3 -14 8 -6 13 -197 123 -362 207 -321 164 -687 301 -1026 384 -169 41 -183 44
-285 61 -33 5 -71 12 -84 15 -14 2 -61 9 -105 15 -45 6 -97 13 -116 16 -32 4
-60 7 -200 20 -52 5 -588 13 -592 9z"/>
</g>
</svg>
